<svg width="1900" height="915" viewBox="0 0 1900 915" fill="none" xmlns="http://www.w3.org/2000/svg">
<rect width="1900" height="915" fill="#E4D3BE"/>
<g clip-path="url(#clip0_14_112)">
<path d="M958.05 564.734C1012.79 564.734 1057.17 517.825 1057.17 459.96C1057.17 402.096 1012.79 355.187 958.05 355.187C903.308 355.187 858.93 402.096 858.93 459.96C858.93 517.825 903.308 564.734 958.05 564.734Z" fill="#DC6157"/>
<path d="M501.663 366.318C508.874 362.976 516.085 361.305 523.221 361.33C530.357 361.33 537.296 362.387 543.988 364.377C550.705 366.367 557.224 368.849 563.521 371.748C569.842 374.672 575.72 377.449 581.177 380.103C586.634 382.756 591.622 384.771 596.141 386.172C600.66 387.572 604.759 387.597 608.463 386.27C609.895 385.754 611.13 384.648 612.167 382.953C613.18 381.282 613.155 378.874 612.044 375.754C610.365 371.085 607.5 367.153 603.401 364.033C599.277 360.888 593.82 358.087 586.98 355.679C580.115 353.271 571.744 351.133 561.743 349.437C551.742 347.717 540.013 346.243 526.752 344.916C514.208 343.663 502.775 342.459 492.749 341.402C482.748 340.346 473.834 338.577 466.055 336.046C458.302 333.515 451.363 329.731 445.313 324.669C439.263 319.607 433.855 312.506 429.138 303.292C424.891 295.011 422.817 286.485 423.039 277.688C423.261 268.916 425.632 260.292 430.2 251.888C434.769 243.485 441.559 235.474 450.572 227.98C459.586 220.486 470.648 213.95 483.687 208.544C498.922 202.205 513.714 197.438 527.888 194.17C542.062 190.902 555.372 187.216 567.867 183.063C576.855 180.066 583.251 176.748 587.029 172.964C588.091 172.645 588.61 172.473 589.671 172.129C591.548 173.701 593.894 176.822 596.709 181.466C599.524 186.11 602.018 192.007 604.216 199.108C608.043 211.542 607.525 221.542 602.833 229.086C598.117 236.654 590.141 242.232 578.806 246.114C571.472 248.62 564.286 249.628 557.175 249.136C550.038 248.645 543.075 247.318 536.284 245.156C529.468 242.993 522.875 240.389 516.554 237.366C510.207 234.32 504.133 231.592 498.33 229.16C492.527 226.727 487.045 225.032 481.909 224.073C476.772 223.115 471.982 223.582 467.611 225.474C466.154 226.113 464.845 227.415 463.709 229.381C462.574 231.371 462.672 233.853 464.03 236.875C466.055 241.396 469.463 244.984 474.204 247.637C478.921 250.291 485.119 252.503 492.749 254.321C500.355 256.139 509.565 257.613 520.307 258.891C531.049 260.169 543.42 261.668 557.372 263.584C570.46 265.378 581.967 267.344 591.918 269.334C601.87 271.324 610.439 274.199 617.649 277.885C624.86 281.571 630.934 286.485 635.848 292.53C640.787 298.599 644.713 306.609 647.677 316.487C650.368 325.382 651.06 334.08 649.899 342.533C648.738 350.985 645.923 358.873 641.503 366.269C637.083 373.665 631.008 380.275 623.304 386.221C615.6 392.167 606.414 397.131 595.672 401.234C589.375 403.642 582.905 405.854 576.213 407.893C569.521 409.933 562.904 412.046 556.335 414.183C549.767 416.346 543.445 418.459 537.395 420.523C531.345 422.587 525.838 424.823 520.875 427.182C513.911 430.499 509.072 434.136 506.38 438.042C505.565 438.46 505.145 438.657 504.306 439.074C502.38 437.723 499.737 434.946 496.354 430.745C492.971 426.543 489.613 421.236 486.304 414.798C480.279 403.028 478.649 393.199 481.637 385.386C484.6 377.572 491.317 371.11 501.713 366.269L501.663 366.318Z" fill="#333333"/>
<path d="M769.663 352.165C754.896 354.892 741.636 356.194 729.733 355.924C717.831 355.654 707.435 354.057 698.496 351.034C689.582 347.988 682.149 343.638 676.247 337.864C670.345 332.09 666.197 325.161 663.876 317.003C655.85 288.868 647.825 260.734 639.824 232.624C634.268 213.139 629.502 198.273 625.502 188.027C621.501 177.78 616.736 171.613 611.204 169.549C610.982 168.836 610.883 168.468 610.686 167.755C653.01 155.961 695.385 146.058 738.574 137.901C738.697 138.638 738.771 139.006 738.895 139.743C734.894 144.019 733.388 151.661 734.376 162.62C735.363 173.579 737.759 189.009 741.487 208.912C746.105 233.582 750.748 258.277 755.365 282.947C757.588 294.741 762.798 303.464 770.873 309.287C778.948 315.111 789.418 316.954 802.555 315.037C809.765 313.981 815.642 312.064 820.186 309.189C824.729 306.314 828.187 302.948 830.557 299.041C832.903 295.134 834.409 290.81 835.027 286.067C835.644 281.325 835.693 276.583 835.175 271.865C834.459 265.28 832.508 259.112 829.273 253.338C826.038 247.564 822.137 241.986 817.544 236.605C812.951 231.223 807.987 225.916 802.653 220.682C797.32 215.449 792.257 209.944 787.442 204.17C782.627 198.396 778.306 192.204 774.503 185.569C770.7 178.935 768.107 171.564 766.823 163.381C764.971 151.759 767.243 142.643 773.787 136.131C780.306 129.645 789.912 125.517 802.382 123.993C809.666 123.109 817.149 122.765 824.804 123.035C832.459 123.281 837.62 123.846 840.311 124.632C840.385 125.492 840.435 125.934 840.509 126.794C838.064 128.686 836.508 132.986 835.866 139.67C835.224 146.378 835.2 155.985 835.817 168.492C836.434 180.999 837.62 196.602 839.373 215.326C841.126 234.049 843.324 256.458 845.941 282.578C846.781 291.006 845.991 298.918 843.645 306.339C841.299 313.759 837.052 320.394 830.977 326.315C824.902 332.237 816.852 337.324 806.827 341.697C796.801 346.071 784.454 349.486 769.712 352.189L769.663 352.165Z" fill="#333333"/>
<path d="M896.86 268.523C904.613 268.13 911.774 269.309 918.244 272.012C924.689 274.715 930.64 278.254 935.974 282.627C941.308 287.001 946.345 291.719 950.988 296.781C955.655 301.842 959.952 306.634 963.952 311.13C967.952 315.627 971.73 319.386 975.336 322.36C978.941 325.357 982.67 326.905 986.547 327.053C988.053 327.102 989.584 326.537 991.14 325.357C992.695 324.178 993.56 321.942 993.708 318.649C993.93 313.686 992.769 308.993 990.177 304.545C987.584 300.098 983.657 295.454 978.299 290.662C972.94 285.871 966.076 280.76 957.606 275.428C949.136 270.096 939.036 264.321 927.48 258.129C916.54 252.257 906.638 246.851 897.971 242.084C889.303 237.342 881.895 232.354 875.821 227.046C869.746 221.763 864.881 215.645 861.276 208.691C857.695 201.713 855.399 193.113 854.535 182.793C853.769 173.529 855.029 164.856 858.461 156.821C861.893 148.786 867.203 141.709 874.438 135.665C881.673 129.62 890.76 124.755 901.699 121.217C912.639 117.678 925.109 115.786 938.962 115.663C955.186 115.516 970.397 116.622 984.571 118.907C998.72 121.167 1012.25 122.74 1025.27 123.551C1034.62 124.141 1041.71 123.428 1046.6 121.339C1047.69 121.438 1048.23 121.462 1049.34 121.561C1050.48 123.723 1051.47 127.507 1052.31 132.864C1053.15 138.22 1053.22 144.609 1052.58 152.029C1051.44 165.003 1047.22 174.045 1040.08 179.304C1032.95 184.538 1023.54 186.774 1011.71 186.135C1004.08 185.717 997.115 183.972 990.794 180.852C984.472 177.731 978.595 173.898 973.212 169.352C967.804 164.807 962.767 159.941 958.124 154.732C953.482 149.548 948.963 144.732 944.592 140.309C940.221 135.886 935.851 132.249 931.554 129.423C927.257 126.598 922.738 125.246 918.071 125.369C916.516 125.418 914.836 126.131 913.083 127.531C911.305 128.932 910.49 131.291 910.589 134.584C910.762 139.547 912.515 144.142 915.824 148.368C919.133 152.619 923.924 156.993 930.171 161.514C936.419 166.06 944.222 170.876 953.507 176.085C962.816 181.27 973.533 187.314 985.534 194.292C996.819 200.853 1006.6 206.947 1014.97 212.525C1023.34 218.078 1030.11 223.95 1035.34 230.069C1040.58 236.187 1044.3 242.993 1046.55 250.439C1048.8 257.908 1049.39 266.779 1048.43 277.074C1047.56 286.338 1044.95 294.643 1040.72 302.063C1036.5 309.459 1030.95 315.75 1024.13 320.934C1017.31 326.144 1009.26 330.001 1000 332.63C990.72 335.26 980.497 336.439 969.187 336.218C962.569 336.095 955.828 335.726 948.988 335.112C942.148 334.498 935.332 333.957 928.591 333.49C921.825 333.024 915.33 332.606 909.083 332.237C902.835 331.869 897.032 331.869 891.649 332.164C884.142 332.606 878.413 334.154 874.536 336.734C873.648 336.808 873.203 336.832 872.289 336.906C871.055 334.94 869.697 331.353 868.19 326.193C866.684 321.033 865.597 314.841 865.005 307.641C863.894 294.471 866.067 284.79 871.623 278.671C877.179 272.553 885.649 269.113 896.835 268.572L896.86 268.523Z" fill="#333333"/>
<path d="M1159.35 353.516C1123.94 346.464 1088.73 340.887 1052.87 336.66C1052.97 335.8 1053 335.358 1053.1 334.498C1057.32 331.402 1060.53 324.497 1062.75 313.71C1064.95 302.948 1067.22 287.591 1069.47 267.663L1077.54 196.529C1079.81 176.626 1081 161.145 1081.07 150.137C1081.15 139.129 1079.05 131.61 1074.75 127.63C1074.85 126.77 1074.88 126.328 1074.97 125.468C1118.51 130.505 1161.35 137.286 1204.29 145.96C1204.12 146.82 1204.02 147.238 1203.83 148.073C1198.47 150.531 1194.17 157.017 1190.94 167.534C1187.7 178.051 1184.05 193.138 1179.97 212.746C1178.56 219.552 1177.85 222.943 1176.44 229.749C1179.38 229.921 1182.96 230.364 1187.16 231.052C1191.35 231.74 1195.82 232.624 1200.59 233.705C1205.8 234.885 1210.47 236.113 1214.57 237.317C1218.64 238.521 1221.58 239.578 1223.38 240.438C1225.09 233.705 1225.95 230.339 1227.65 223.606C1232.57 204.17 1235.83 189.01 1237.38 178.1C1238.94 167.19 1237.85 159.475 1234.1 154.953C1234.3 154.118 1234.4 153.7 1234.62 152.84C1277.39 163.701 1319.24 176.257 1360.93 190.705C1360.63 191.516 1360.48 191.934 1360.18 192.744C1354.51 194.44 1349.34 200.288 1344.7 210.264C1340.06 220.24 1334.4 234.713 1327.71 253.608C1319.74 276.116 1311.79 298.623 1303.81 321.131C1297.12 340.027 1292.38 354.819 1289.54 365.434C1286.7 376.048 1286.55 383.666 1289.04 388.31C1288.75 389.121 1288.6 389.538 1288.3 390.349C1253.93 378.53 1219.53 368.21 1184.32 359.168C1184.51 358.332 1184.61 357.915 1184.84 357.055C1189.45 354.548 1193.58 348.135 1197.23 337.741C1200.86 327.372 1205.18 312.457 1210.1 293.021C1210.91 289.778 1211.33 288.156 1212.15 284.912C1215.18 272.897 1216.05 263.24 1214.64 255.992C1213.23 248.743 1209.43 244.345 1203.33 242.92C1195.08 241.003 1187.16 245.033 1179.8 254.984C1172.42 264.936 1166.32 279.187 1162.56 296.83C1159.4 311.695 1157.82 324.03 1157.13 332.753C1156.44 341.476 1157.33 347.668 1159.85 351.379C1159.67 352.239 1159.57 352.656 1159.38 353.492L1159.35 353.516Z" fill="#333333"/>
<path d="M1497.16 251.913C1491.26 252.871 1485.38 258.031 1479.53 267.344C1473.65 276.681 1466.27 290.318 1457.28 308.255C1446.59 329.608 1435.87 350.961 1425.18 372.338C1416.19 390.275 1409.65 404.355 1405.55 414.552C1401.42 424.749 1400.36 432.293 1402.31 437.232C1401.92 437.993 1401.72 438.386 1401.32 439.173C1368.31 423.054 1335.1 408.434 1300.9 395.018C1301.19 394.207 1301.36 393.789 1301.66 392.978C1306.6 391.086 1311.51 385.214 1316.4 375.36C1321.29 365.507 1327.42 351.231 1334.68 332.557L1360.68 265.796C1367.96 247.097 1373.05 232.452 1375.91 221.813C1378.78 211.173 1378.63 203.359 1375.42 198.396C1375.72 197.585 1375.89 197.167 1376.19 196.356C1417.77 212.549 1458.17 230.314 1498.17 249.996C1497.78 250.758 1497.58 251.151 1497.18 251.937L1497.16 251.913Z" fill="#333333"/>
<path d="M648.047 628.202C642.12 626.359 638.12 623.067 636.095 618.373C634.07 613.68 633.083 608.299 633.132 602.279C633.181 596.234 633.972 589.969 635.453 583.433C636.935 576.921 638.194 570.803 639.231 565.078C640.268 559.353 640.836 554.438 640.935 550.335C641.059 546.231 639.75 543.7 637.009 542.742C623.6 584.047 610.167 625.376 596.758 666.681C590.708 685.282 586.535 699.828 584.288 710.345C582.016 720.861 582.461 728.479 585.622 733.172C585.375 733.983 585.251 734.376 584.98 735.187C545.692 721.967 507.244 706.266 469.611 688.943C469.957 688.157 470.105 687.788 470.451 687.002C475.859 685.749 481.143 680.417 486.279 671.055C491.416 661.693 497.762 648.007 505.318 630.02C522.134 590.067 538.926 550.114 555.742 510.16C553.075 508.956 550.458 509.915 547.865 513.035C545.272 516.156 542.507 520.185 539.568 525.149C536.63 530.088 533.592 535.494 530.456 541.366C527.32 547.214 523.814 552.423 519.937 556.92C516.035 561.417 511.813 564.709 507.219 566.724C502.626 568.763 497.49 568.395 491.835 565.594C484.156 561.785 479.834 555.151 478.97 545.887C478.106 536.624 481.612 524.141 489.292 508.465C493.366 500.184 497.268 493.452 500.972 488.242C504.676 483.058 507.442 479.79 509.244 478.463C510.035 478.881 510.405 479.077 511.195 479.47C513.442 481.534 515.615 483.279 517.714 484.679C519.813 486.105 523.295 488.021 528.16 490.429C537.148 494.877 547.989 499.668 560.755 504.656C573.497 509.62 586.19 514.632 598.808 519.694C611.624 524.829 624.292 529.965 636.861 535.15C649.43 540.334 660.443 544.29 669.827 547.239C674.914 548.836 678.667 549.794 681.112 550.212C683.532 550.63 686.223 550.851 689.186 550.875C690.001 551.121 690.421 551.244 691.236 551.465C691.681 553.701 691.582 558.026 690.964 564.439C690.322 570.877 688.841 578.568 686.495 587.561C682.025 604.54 676.593 616.236 670.024 622.501C663.456 628.792 656.072 630.708 648.047 628.202Z" fill="#333333"/>
<path d="M836.978 721.451C841.052 742.042 844.978 757.817 848.411 768.702C851.843 779.587 855.646 786.959 859.72 790.767C859.646 791.603 859.622 792.045 859.547 792.881C824.655 789.441 790.183 784.919 755.587 779.17C747.216 777.671 738.919 776.319 730.721 775.066C722.523 773.838 714.67 772.634 707.188 771.479C699.706 770.324 692.816 769.194 686.544 768.088C680.272 766.982 674.741 765.827 670 764.599C651.949 759.979 639.034 752.141 631.428 741.698C623.823 731.231 622.711 717.127 627.798 699.509C630.317 690.786 633.725 683.193 637.972 676.682C642.219 670.195 647.059 664.052 652.418 658.302C657.776 652.528 663.653 646.754 670.049 640.905C676.42 635.057 683.062 628.546 689.903 621.297C696.767 614.049 703.78 605.694 710.917 596.161C718.053 586.627 724.992 575.299 731.684 562.154C750.254 566.65 765.983 569.427 778.651 570.901C791.344 572.4 802.16 572.597 811.025 571.737C811.741 571.859 812.086 571.909 812.827 572.007C819.396 622.108 827.446 671.792 836.978 721.427V721.451ZM700.002 664.764C702.274 664.912 705.089 665.158 708.472 665.452C711.855 665.747 715.93 666.46 720.745 667.566C723.362 668.155 725.98 668.819 728.573 669.482C731.166 670.17 733.536 670.834 735.684 671.497C734.005 640.537 732.919 609.528 732.45 578.543C731.857 578.395 731.536 578.322 730.943 578.174C724.251 592.131 718.251 606.26 713.09 620.585C707.929 634.91 703.533 649.628 700.002 664.764ZM722.869 765.729C731.166 767.474 736.302 763.002 738.228 752.46C739.166 747.3 739.512 740.764 739.314 732.901C739.092 725.039 738.549 715.947 737.709 705.676C737.487 702.408 737.388 700.786 737.166 697.518C736.722 690.196 735.536 684.79 733.586 681.277C731.635 677.763 728.795 675.601 725.091 674.765C718.498 673.291 712.843 675.011 708.028 679.974C703.212 684.938 699.706 692.039 697.582 701.278C696.372 706.585 695.878 712.704 696.125 719.633C696.372 726.537 697.434 733.196 699.36 739.56C701.262 745.924 704.175 751.576 708.077 756.49C711.979 761.405 716.942 764.5 722.869 765.729Z" fill="#333333"/>
<path d="M983.509 591.05C979.953 594.588 977.854 601.689 977.212 612.427C976.57 623.165 976.397 638.35 976.718 657.958C977.089 681.326 977.484 704.693 977.854 728.036C978.175 747.669 978.891 762.83 980.027 773.518C981.163 784.232 983.954 791.259 988.374 794.576C988.374 795.436 988.398 795.854 988.423 796.689C948 797.869 907.478 796.517 867.153 793.446C867.227 792.61 867.252 792.168 867.301 791.333C871.894 788.237 875.08 781.381 876.858 770.766C878.636 760.151 880.167 745.04 881.451 725.456C882.982 702.138 884.513 678.844 886.044 655.526C887.328 635.942 887.846 620.781 887.649 610.019C887.451 599.257 885.649 592.033 882.266 588.322C882.34 587.487 882.364 587.045 882.414 586.209C915.997 588.863 949.728 589.772 983.435 588.912C983.435 589.772 983.46 590.19 983.484 591.025L983.509 591.05Z" fill="#333333"/>
<path d="M1292.33 747.988C1253.21 759.906 1213.31 769.366 1173.16 777.057C1173.01 776.221 1172.93 775.803 1172.79 774.968C1175.53 770.963 1176.27 763.763 1175.01 753.394C1173.75 743.05 1170.71 728.036 1166.02 708.355C1158.29 676.313 1150.71 644.223 1143.3 612.108C1142.81 612.206 1142.56 612.255 1142.07 612.329C1142.76 669.138 1142.34 725.849 1140.83 782.659C1122.39 785.608 1113.15 786.885 1094.66 789.072C1069.59 732.041 1046.82 674.495 1026.11 615.769C1025.61 615.793 1025.36 615.818 1024.87 615.843C1024.53 633.903 1025.93 649.579 1029.27 662.823C1032.6 676.067 1036.58 688.23 1041.17 699.214C1045.79 710.222 1050.31 720.763 1054.7 730.813C1059.1 740.887 1061.89 751.846 1062.9 763.739C1063.94 775.828 1061.86 784.526 1056.58 789.736C1051.29 794.945 1043.02 798.016 1031.86 798.729C1025.54 799.122 1019.22 798.974 1012.87 798.262C1006.52 797.549 1002.13 796.689 999.684 795.78L999.609 793.667C1004.57 775.877 1007.81 755.507 1009.49 732.68C1011.34 707.421 1012.62 681.989 1013.49 656.68C1014.18 636.409 1013.91 621.052 1012.75 610.683C1011.61 600.313 1009.12 593.507 1005.31 590.264C1005.26 589.404 1005.26 588.986 1005.21 588.15C1037 586.602 1068.7 583.506 1100.19 578.813C1109.89 606.849 1120.04 634.714 1130.66 662.406C1131.18 662.307 1131.45 662.283 1131.97 662.185C1132.24 632.65 1132.14 603.139 1131.67 573.604C1163.87 567.731 1195.78 560.212 1227.21 551.096C1227.43 551.907 1227.53 552.325 1227.75 553.136C1225.11 557.485 1224.69 564.783 1226.52 575.054C1228.35 585.325 1232.4 600.068 1238.77 619.233C1246.03 641.397 1253.41 663.536 1260.87 685.626C1266.97 704.03 1272.37 718.159 1277.04 728.036C1281.71 737.914 1286.65 743.885 1291.76 745.924C1291.98 746.735 1292.1 747.153 1292.33 747.964V747.988Z" fill="#333333"/>
<path d="M1408.63 710.763C1392.58 717.495 1377.79 721.721 1364.51 723.687C1351.22 725.628 1339.62 725.53 1329.79 723.564C1319.96 721.599 1311.96 717.888 1305.74 712.581C1299.51 707.273 1295.29 700.614 1292.97 692.678C1284.94 665.281 1276.92 637.908 1268.87 610.51C1263.31 591.541 1258.62 577.069 1254.82 567.043C1251.01 557.043 1246.89 550.949 1242.42 548.713C1242.22 548.025 1242.13 547.656 1241.93 546.968C1274.82 536.869 1306.75 524.657 1338.58 511.634C1338.85 512.298 1338.97 512.642 1339.24 513.33C1337.07 517.974 1337.52 525.419 1340.6 535.69C1343.69 545.961 1348.78 560.311 1355.89 578.69C1364.73 601.493 1373.54 624.295 1382.38 647.122C1386.61 658.007 1393.35 665.305 1402.76 668.819C1412.19 672.333 1423.67 671.129 1436.93 664.986C1444.24 661.595 1449.85 657.688 1453.77 653.339C1457.7 648.99 1460.27 644.518 1461.5 639.972C1462.74 635.426 1462.91 630.831 1462.07 626.212C1461.23 621.568 1459.8 617.169 1457.85 612.992C1455.11 607.169 1451.33 602.181 1446.51 597.954C1441.7 593.753 1436.41 589.87 1430.64 586.332C1424.86 582.794 1418.86 579.329 1412.66 575.963C1406.46 572.572 1400.51 568.763 1394.83 564.537C1389.15 560.311 1383.87 555.47 1378.98 550.064C1374.09 544.659 1370.14 538.221 1367.05 530.8C1362.63 520.21 1362.14 511.241 1365.44 503.87C1368.73 496.498 1374.8 490.699 1383.74 486.326C1388.95 483.77 1394.46 481.583 1400.24 479.716C1406.04 477.873 1410.09 476.866 1412.39 476.792L1413.33 478.684C1412.19 481.117 1412.56 485.441 1414.41 491.732C1416.29 497.997 1419.6 506.745 1424.41 517.925C1429.2 529.129 1435.53 542.988 1443.35 559.5C1451.18 576.012 1460.61 595.768 1471.68 618.767C1475.26 626.187 1477.04 633.804 1476.99 641.618C1476.91 649.432 1474.54 657.368 1469.75 665.33C1464.96 673.291 1457.63 681.227 1447.65 688.943C1437.7 696.658 1424.66 704.054 1408.61 710.763H1408.63Z" fill="#333333"/>
</g>
<defs>
<clipPath id="clip0_14_112">
<rect width="1100" height="683.974" fill="white" transform="translate(400 115)"/>
</clipPath>
</defs>
</svg>
