<svg width="116" height="116" viewBox="0 0 116 116" fill="none" xmlns="http://www.w3.org/2000/svg">
    <path
        d="M102.917 0C106.32 0 109.584 1.35208 111.991 3.7588C114.398 6.16551 115.75 9.42972 115.75 12.8333V102.667C115.75 106.07 114.398 109.334 111.991 111.741C109.584 114.148 106.32 115.5 102.917 115.5H13.0833C9.67972 115.5 6.41551 114.148 4.0088 111.741C1.60208 109.334 0.25 106.07 0.25 102.667V12.8333C0.25 9.42972 1.60208 6.16551 4.0088 3.7588C6.41551 1.35208 9.67972 0 13.0833 0H102.917ZM99.7083 99.4583V65.45C99.7083 59.9021 97.5044 54.5815 93.5815 50.6585C89.6585 46.7356 84.3379 44.5317 78.79 44.5317C73.3358 44.5317 66.9833 47.8683 63.9033 52.8733V45.7508H46.0008V99.4583H63.9033V67.8242C63.9033 62.8833 67.8817 58.8408 72.8225 58.8408C75.205 58.8408 77.49 59.7873 79.1747 61.472C80.8594 63.1567 81.8058 65.4416 81.8058 67.8242V99.4583H99.7083ZM25.1467 35.6767C28.0057 35.6767 30.7476 34.5409 32.7693 32.5193C34.7909 30.4976 35.9267 27.7557 35.9267 24.8967C35.9267 18.9292 31.1142 14.0525 25.1467 14.0525C22.2706 14.0525 19.5124 15.195 17.4787 17.2287C15.445 19.2624 14.3025 22.0206 14.3025 24.8967C14.3025 30.8642 19.1792 35.6767 25.1467 35.6767ZM34.0658 99.4583V45.7508H16.2917V99.4583H34.0658Z"
        fill="#F0E9E2" />
</svg>
    