<svg width="129" height="103" viewBox="0 0 129 103" fill="none" xmlns="http://www.w3.org/2000/svg">
    <path
        d="M128.333 22.6829V83.4166C128.334 88.3267 126.458 93.0513 123.089 96.6238C119.721 100.196 115.114 102.346 110.213 102.635L109.083 102.667H19.25C14.3399 102.667 9.61528 100.791 6.04283 97.4224C2.47037 94.0539 0.320143 89.4476 0.0320841 84.5459L0 83.4166V22.6829L60.6054 63.0886L61.3497 63.5121C62.2269 63.9407 63.1904 64.1635 64.1667 64.1635C65.143 64.1635 66.1064 63.9407 66.9836 63.5121L67.7279 63.0886L128.333 22.6829Z"
        fill="#F0E9E2" />
    <path
        d="M109.083 0C116.013 0 122.09 3.6575 125.478 9.15658L64.1667 50.0308L2.85547 9.15658C4.46472 6.54387 6.67525 4.35371 9.30276 2.76872C11.9303 1.18374 14.8986 0.249847 17.9603 0.0449165L19.2501 0H109.083Z"
        fill="#F0E9E2" />
</svg>
    