<svg width="75" height="101" viewBox="0 0 75 101" fill="none" xmlns="http://www.w3.org/2000/svg">
    <path
        d="M24.2113 77.4602C8.79594 81.7506 33.5403 90.6309 53.1463 82.4491C51.2436 81.7091 49.4077 80.8078 47.6586 79.7551C40.8517 81.3048 33.8205 81.6091 26.9052 80.6531C20.3699 79.9048 24.2113 77.4602 24.2113 77.4602ZM50.8015 69.0789C42.0215 70.9884 32.9853 71.4267 24.0616 70.376C17.5263 69.6776 21.8167 66.5346 21.8167 66.5346C4.8548 72.1221 31.2455 78.5079 54.9422 71.5234C53.4016 71.0173 51.989 70.1833 50.8015 69.0789ZM59.8811 20.5371C59.8811 20.5371 25.6082 29.0681 41.9714 47.9261C42.6098 48.6914 43.0855 49.5788 43.3695 50.5342C43.6534 51.4896 43.7397 52.4928 43.623 53.4826C43.5062 54.4724 43.189 55.428 42.6906 56.2911C42.1922 57.1542 41.5231 57.9066 40.7242 58.5025C40.7242 58.5025 52.9966 52.1666 47.3593 44.2343C41.7219 36.302 38.0801 33.159 59.8811 20.5371Z"
        fill="#F0E9E2" />
    <path
        d="M67.9131 85.5919C67.9131 85.5919 70.7068 87.8868 64.7702 89.6828C53.4456 93.1251 17.7259 94.1728 7.79823 89.6828C4.20631 88.1362 10.8913 85.991 12.787 85.542C13.9107 85.2519 15.069 85.1177 16.2293 85.1429C12.2383 82.3491 -9.46297 90.6306 5.20406 93.0253C45.3638 99.8601 78.2399 90.2315 67.9131 85.5919ZM54.1441 61.2462C55.6111 60.3184 57.1452 59.5013 58.7337 58.8016C58.7337 58.8016 51.2007 60.1486 43.7674 60.7972C35.774 61.5687 27.7291 61.6521 19.7214 61.0466C7.84812 59.5001 26.0572 54.9602 26.0572 54.9602C20.5775 54.9177 15.1688 56.2015 10.2926 58.7018C0.0157277 63.8404 35.6855 66.0854 54.1441 61.2462ZM58.6838 73.419C58.5749 73.5885 58.4402 73.7399 58.2847 73.868C83.2287 67.2827 74.1491 50.6697 62.176 54.8604C61.5155 55.1034 60.9424 55.5376 60.5297 56.1076C60.5297 56.1076 61.2281 55.8582 62.6749 55.5089C68.7612 54.2617 77.2421 63.6408 58.6838 73.419ZM37.3318 54.9602C33.6401 46.6287 21.0684 39.2951 37.3318 26.4737C57.736 10.4594 47.3094 0.0825195 47.3094 0.0825195C51.5 16.5957 32.3431 21.5846 25.6581 31.8617C21.0185 38.896 28.0028 46.4292 37.3318 54.9602Z"
        fill="#F0E9E2" />
    <path
        d="M59.3324 96.4678C44.2599 99.0482 28.8793 99.2838 13.7349 97.1662C13.7349 97.1662 16.0297 99.062 27.903 99.8103C45.9125 100.958 73.5504 99.2116 74.2488 90.6807C74.2488 90.6807 72.9517 93.8735 59.3324 96.4678Z"
        fill="#F0E9E2" />
</svg>
    