<svg width="93" height="101" viewBox="0 0 93 101" fill="none" xmlns="http://www.w3.org/2000/svg">
    <path
        d="M0.482544 0.391235V100.435H92.8304V0.391235H0.482544ZM50.7396 78.4144C50.7396 88.1508 45.4625 92.5956 37.7746 92.5956C30.8287 92.5956 26.8083 88.7118 24.7469 83.999L31.8181 79.3756C33.1803 81.9874 34.4171 84.1991 37.4052 84.1991C40.2482 84.1991 42.0622 82.9914 42.0622 78.2822V46.3255H50.7396V78.4144ZM71.2671 92.5956C63.2065 92.5956 57.9921 88.4438 55.4559 82.9914L62.5271 78.5716C64.3839 81.8552 66.8147 84.2884 71.0825 84.2884C74.6675 84.2884 76.9795 82.3447 76.9795 79.6435C76.9795 76.4279 74.6279 75.2881 70.6504 73.3908L68.4868 72.3868C62.2204 69.507 58.0779 65.8661 58.0779 58.2056C58.0779 51.149 63.0449 45.7895 70.7757 45.7895C76.3001 45.7895 80.2579 47.8654 83.1042 53.3142L76.343 58.0056C74.8588 55.1257 73.2493 53.986 70.7559 53.986C68.223 53.986 66.6135 55.7296 66.6135 58.0056C66.6135 60.8211 68.223 61.9573 71.9532 63.7223L74.1167 64.7263C81.498 68.1421 85.6404 71.6508 85.6404 79.5078C85.6404 87.9507 79.496 92.592 71.2704 92.592L71.2671 92.5956Z"
        fill="#F0E9E2" />
</svg>
    