<svg width="125" height="125" viewBox="0 0 125 125" fill="none" xmlns="http://www.w3.org/2000/svg">
    <mask id="mask0_172_122" style="mask-type:luminance" maskUnits="userSpaceOnUse" x="0" y="0"
        width="125" height="125">
        <path d="M0 0H125V125H0V0Z" fill="white" />
    </mask>
    <g mask="url(#mask0_172_122)">
        <path
            d="M58.4063 0.031901C58.1354 0.0579427 57.2813 0.146484 56.5104 0.203776C38.7604 1.80794 22.1354 11.3861 11.5938 26.11C5.77602 34.1939 1.99211 43.5608 0.5625 53.4173C0.0625 56.8548 0 57.8652 0 62.5215C0 67.1777 0.0625 68.1934 0.5625 71.6256C3.95833 95.0996 20.6667 114.818 43.3177 122.126C47.375 123.433 51.651 124.324 56.5104 124.865C58.4063 125.074 66.5938 125.074 68.4896 124.865C76.8802 123.933 83.9948 121.855 91.0052 118.277C92.0833 117.73 92.2917 117.579 92.1458 117.459C88.7167 112.937 85.3225 108.388 81.9635 103.813L71.9688 90.3079L59.4479 71.7715C55.2818 65.5716 51.0769 59.3978 46.8333 53.2506C46.7865 53.235 46.7396 61.4694 46.7135 71.5319C46.6771 89.1361 46.6615 89.8444 46.4427 90.2611C46.2278 90.7463 45.8476 91.1394 45.3698 91.3704C44.9792 91.5684 44.6406 91.6048 42.7917 91.6048H40.6771L40.1146 91.2507C39.7665 91.0309 39.484 90.7214 39.2969 90.3548L39.0365 89.8079L39.0625 65.3079L39.099 40.7975L39.4792 40.3184C39.7315 40.0151 40.039 39.7624 40.3854 39.5736C40.8854 39.3288 41.0781 39.3079 43.1979 39.3079C45.6875 39.3079 46.1042 39.4017 46.75 40.11C46.9323 40.3079 53.7135 50.5267 61.8281 62.8288L86.4844 100.183L96.3802 115.173L96.8854 114.844C101.649 111.679 105.966 107.89 109.724 103.579C117.599 94.5642 122.708 83.4699 124.438 71.6256C124.938 68.1881 125 67.1777 125 62.5215C125 57.8652 124.938 56.8548 124.438 53.4173C121.042 29.9486 104.333 10.2246 81.6823 2.91732C77.4489 1.57132 73.0897 0.658658 68.6719 0.193359C67.4948 0.0683594 59.4219 -0.0670573 58.4115 0.0371094M84 37.8496C84.291 37.9952 84.55 38.1973 84.7619 38.4441C84.9739 38.6909 85.1345 38.9775 85.2344 39.2871C85.3281 39.5996 85.3542 46.3965 85.3281 61.709L85.2917 83.6777L81.4219 77.7402L77.5365 71.8027V55.834C77.5365 45.5059 77.5833 39.7038 77.6563 39.4225C77.7435 39.0974 77.8955 38.7933 78.1031 38.5284C78.3108 38.2635 78.5698 38.0433 78.8646 37.8809C79.3698 37.6204 79.5521 37.5996 81.4688 37.5996C83.276 37.5996 83.5938 37.6256 84 37.8444"
            fill="#F0E9E2" />
    </g>
</svg>
    