<svg width="93" height="102" viewBox="0 0 93 102" fill="none" xmlns="http://www.w3.org/2000/svg">
    <path fill-rule="evenodd" clip-rule="evenodd"
        d="M92.8279 27.5524L46.6549 0.547852L0.481812 27.5524V74.3564L7.62798 78.5356L22.24 72.6121C24.2063 71.814 25.8902 70.4459 27.076 68.6828C28.2618 66.9198 28.8955 64.8421 28.896 62.7159V26.0359H35.9995V62.7159C35.999 66.2603 34.9427 69.7238 32.9659 72.6627C30.9891 75.6016 28.1819 77.8821 24.9038 79.2119L15.3851 83.0707L46.6549 101.361L92.8279 74.3635V27.5524ZM43.1031 40.275C43.1031 36.4986 44.5999 32.8768 47.2643 30.2064C49.9286 27.5361 53.5422 26.0359 57.3102 26.0359H65.6C72.7888 26.0359 78.6208 31.8739 78.6208 39.0861V40.275H71.5173V39.0861C71.5173 38.3072 71.3642 37.536 71.0669 36.8165C70.7695 36.097 70.3336 35.4432 69.7842 34.8925C69.2347 34.3418 68.5824 33.9049 67.8645 33.6069C67.1465 33.3089 66.3771 33.1555 65.6 33.1555H57.3102C55.4262 33.1555 53.6194 33.9056 52.2872 35.2407C50.9551 36.5759 50.2066 38.3868 50.2066 40.275C50.2066 42.1632 50.9551 43.9741 52.2872 45.3093C53.6194 46.6445 55.4262 47.3946 57.3102 47.3946H64.4137C68.1817 47.3946 71.7953 48.8948 74.4597 51.5651C77.124 54.2355 78.6208 57.8573 78.6208 61.6337C78.6208 65.4102 77.124 69.0319 74.4597 71.7023C71.7953 74.3727 68.1817 75.8728 64.4137 75.8728H57.3102C53.5422 75.8728 49.9286 74.3727 47.2643 71.7023C44.5999 69.0319 43.1031 65.4102 43.1031 61.6337H50.2066C50.2066 63.5219 50.9551 65.3328 52.2872 66.668C53.6194 68.0032 55.4262 68.7533 57.3102 68.7533H64.4137C66.2977 68.7533 68.1045 68.0032 69.4367 66.668C70.7689 65.3328 71.5173 63.5219 71.5173 61.6337C71.5173 59.7455 70.7689 57.9346 69.4367 56.5994C68.1045 55.2643 66.2977 54.5142 64.4137 54.5142H57.3102C53.5422 54.5142 49.9286 53.014 47.2643 50.3436C44.5999 47.6733 43.1031 44.0515 43.1031 40.275Z"
        fill="#F0E9E2" />
</svg>
    