<svg width="94" height="51" viewBox="0 0 94 51" fill="none" xmlns="http://www.w3.org/2000/svg">
    <path
        d="M47.0538 0.884033C21.1623 0.884033 0.880737 11.8696 0.880737 25.8949C0.880737 39.9202 21.1623 50.9058 47.0538 50.9058C72.9453 50.9058 93.2269 39.9202 93.2269 25.8949C93.2269 11.8696 72.9453 0.884033 47.0538 0.884033ZM42.2595 8.57968H47.3001L45.6994 16.2753H50.2013C53.0563 16.2753 54.9725 16.6755 56.0652 17.6721C57.1311 18.6571 57.4543 20.2732 57.0272 22.4742L55.0263 31.6666H49.9011L51.7442 23.1668C51.9674 22.0009 51.8789 21.189 51.4864 20.7619C51.0978 20.3348 50.2397 20.1232 48.9546 20.1232H44.9183L42.4827 31.6666H37.4344L42.2595 8.57968ZM20.1195 16.2753H30.3776C35.2681 16.2753 38.2309 19.5537 37.0727 24.4443C35.726 30.1275 32.1245 31.6666 25.491 31.6666H22.3204L21.3162 37.4384H16.2179L20.1195 16.2753ZM60.5209 16.2753H70.7791C75.6695 16.2753 78.6323 19.5537 77.4741 24.4443C76.1274 30.1275 72.5221 31.6666 65.8924 31.6666H62.7219L61.7176 37.4384H56.6193L60.5209 16.2753ZM24.4867 20.1232L23.0361 27.8188H26.3259C29.1733 27.8188 31.8205 27.4956 32.263 23.2514C32.4285 21.6046 31.7436 20.1232 28.4537 20.1232H24.4867ZM64.8881 20.1232L63.4375 27.8188H66.7274C69.5747 27.8188 72.222 27.4956 72.6645 23.2514C72.8299 21.6046 72.1489 20.1232 68.8552 20.1232H64.8881Z"
        fill="#F0E9E2" />
</svg>
    