<svg width="93" height="93" viewBox="0 0 93 93" fill="none" xmlns="http://www.w3.org/2000/svg">
    <path
        d="M18.9522 74.4261H9.71739C7.26817 74.4261 4.91927 73.4532 3.18741 71.7213C1.45555 69.9894 0.482605 67.6405 0.482605 65.1913L0.482605 34.4087C0.482605 31.9595 1.45555 29.6106 3.18741 27.8787C4.91927 26.1469 7.26817 25.1739 9.71739 25.1739H49.7348V19.0174H43.5783V12.8609H37.4217V19.0174H25.1087V9.78263C25.1087 7.33342 26.0816 4.98451 27.8135 3.25266C29.5454 1.5208 31.8943 0.547852 34.3435 0.547852L58.9696 0.547852C61.4188 0.547852 63.7677 1.5208 65.4995 3.25266C67.2314 4.98451 68.2043 7.33342 68.2043 9.78263V40.5652C68.2043 41.3816 67.88 42.1646 67.3027 42.7419C66.7255 43.3192 65.9425 43.6435 65.1261 43.6435H28.187C25.7377 43.6435 23.3888 44.6164 21.657 46.3483C19.9251 48.0802 18.9522 50.4291 18.9522 52.8783V74.4261Z"
        fill="#F0E9E2" />
    <path
        d="M74.3608 19.0173V40.5652C74.3608 43.0144 73.3879 45.3633 71.656 47.0951C69.9242 48.827 67.5753 49.7999 65.126 49.7999H28.1869C27.3705 49.7999 26.5875 50.1243 26.0102 50.7015C25.433 51.2788 25.1086 52.0618 25.1086 52.8782V83.6608C25.1086 86.11 26.0816 88.4589 27.8134 90.1908C29.5453 91.9226 31.8942 92.8956 34.3434 92.8956H58.9695C61.4187 92.8956 63.7676 91.9226 65.4995 90.1908C67.2313 88.4589 68.2043 86.11 68.2043 83.6608V74.426H55.8913V80.5825H49.7347V74.426H43.5782V68.2695H83.5956C86.0448 68.2695 88.3937 67.2966 90.1256 65.5647C91.8574 63.8328 92.8304 61.4839 92.8304 59.0347V28.2521C92.8304 25.8029 91.8574 23.454 90.1256 21.7221C88.3937 19.9903 86.0448 19.0173 83.5956 19.0173H74.3608Z"
        fill="#F0E9E2" />
</svg>
    