<svg width="93" height="98" viewBox="0 0 93 98" fill="none" xmlns="http://www.w3.org/2000/svg">
    <path
        d="M74.2002 47.2163C72.1022 45.1104 69.6108 43.4408 66.8688 42.3032C64.1268 41.1656 61.188 40.5825 58.221 40.5872C55.2539 40.5918 52.317 41.1843 49.5785 42.3305C46.8401 43.4767 44.3539 45.1542 42.2626 47.2668C40.1612 49.3692 38.4939 51.8674 37.3563 54.6179C36.2187 57.3684 35.6331 60.3173 35.6331 63.2955C35.6331 66.2736 36.2187 69.2225 37.3563 71.973C38.4939 74.7236 40.1612 77.2217 42.2626 79.3242C45.8841 82.9435 50.6186 85.2269 55.6966 85.8034C60.7747 86.38 65.8977 85.2156 70.2331 82.4997L85.8504 97.9739L92.8304 90.9677L77.3136 75.2918C82.988 66.3701 81.6824 54.6762 74.2002 47.2163ZM67.1197 72.1667C62.1985 77.1064 54.2643 77.056 49.3431 72.1667C44.4721 67.227 44.4721 59.2631 49.3933 54.3234C54.2643 49.4342 62.1985 49.4342 67.1197 54.3234C71.9907 59.2631 71.9907 67.227 67.1197 72.1667ZM35.1319 86.4312C31.8515 83.1104 29.3173 79.123 27.6999 74.7373C11.8817 72.0659 0.482605 64.5556 0.482605 55.6843V70.8058C0.482605 81.9452 18.46 90.9677 40.6557 90.9677C38.647 89.6571 36.789 88.145 35.1319 86.4312ZM0.482605 30.482V45.6034C0.482605 54.0714 10.8774 61.3297 25.5908 64.2532V63.2451C25.5908 58.5574 26.5951 53.9202 28.5033 49.6862C12.2332 47.1155 0.482605 39.5044 0.482605 30.482ZM40.6557 0.239136C18.46 0.239136 0.482605 9.26158 0.482605 20.401C0.482605 30.482 15.5475 38.95 34.8808 40.5629H35.1319C41.1578 34.2119 49.4937 30.482 58.2314 30.482C62.8011 30.482 67.3205 31.4397 71.4885 33.3046C74.0203 32.1428 76.2104 30.3445 77.8467 28.0839C79.483 25.8233 80.5102 23.177 80.8287 20.401C80.8287 9.26158 62.8513 0.239136 40.6557 0.239136Z"
        fill="#F0E9E2" />
</svg>
    