<svg width="93" height="100" viewBox="0 0 93 100" fill="none" xmlns="http://www.w3.org/2000/svg">
    <path fill-rule="evenodd" clip-rule="evenodd"
        d="M0 0H93V100H0V0ZM62 40C58.7113 40 55.5573 41.4048 53.2319 43.9052C50.9064 46.4057 49.6 49.7971 49.6 53.3333C49.6 56.8696 50.9064 60.2609 53.2319 62.7614C55.5573 65.2619 58.7113 66.6667 62 66.6667H68.2C69.8443 66.6667 71.4213 67.369 72.5841 68.6193C73.7468 69.8695 74.4 71.5652 74.4 73.3333C74.4 75.1014 73.7468 76.7971 72.5841 78.0474C71.4213 79.2976 69.8443 80 68.2 80H62C60.3557 80 58.7787 79.2976 57.6159 78.0474C56.4532 76.7971 55.8 75.1014 55.8 73.3333H49.6C49.6 76.8696 50.9064 80.2609 53.2319 82.7614C55.5573 85.2619 58.7113 86.6667 62 86.6667H68.2C71.4887 86.6667 74.6427 85.2619 76.9681 82.7614C79.2936 80.2609 80.6 76.8696 80.6 73.3333C80.6 69.7971 79.2936 66.4057 76.9681 63.9052C74.6427 61.4048 71.4887 60 68.2 60H62C60.3557 60 58.7787 59.2976 57.6159 58.0474C56.4532 56.7971 55.8 55.1014 55.8 53.3333C55.8 51.5652 56.4532 49.8695 57.6159 48.6193C58.7787 47.369 60.3557 46.6667 62 46.6667H69.2354C72.0874 46.6667 74.4 49.1533 74.4 52.22V53.3333H80.6V52.22C80.6 45.4733 75.516 40 69.2354 40H62ZM18.6 40H49.6V46.6667H37.2V86.6667H31V46.6667H18.6V40Z"
        fill="#F0E9E2" />
</svg>
    