<svg width="1900" height="915" viewBox="0 0 1900 915" fill="none" xmlns="http://www.w3.org/2000/svg">
<rect width="1900" height="915" fill="#0B0D0C"/>
<path d="M691.672 572.587L644.401 619.927L597.498 572.587L618.549 551.506V508.234H573.124V551.506L594.174 572.587L546.903 619.927L500 572.587L521.051 551.506V360.667L598.975 283.37L670.622 355.12V551.506L691.672 572.587ZM618.549 453.868V386.186L573.124 340.696V453.868H618.549Z" fill="#CA181E"/>
<path d="M855.641 359.188L816.125 398.021L759.99 340.695V534.863L773.654 548.177L816.125 505.275L854.164 542.629L776.609 619.927L707.917 551.506V355.119L780.302 283L855.641 359.188Z" fill="#CA181E"/>
<path d="M1030.32 440.183L894.047 630.282L941.689 492.7H894.047L956.092 349.941H1014.81L981.574 440.183H1030.32Z" fill="#CA181E"/>
<path d="M1214.98 558.163L1154.04 619.923H1084.24L1043.25 577.761L1065.41 555.94V347.723L1042.88 325.162L1084.24 283.74H1154.04L1214.98 345.504V558.163ZM1162.9 528.576V375.091L1117.48 331.08V572.587L1162.9 528.576Z" fill="#CA181E"/>
<path d="M1400 359.188L1360.49 398.021L1304.35 340.695V534.863L1318.02 548.177L1360.49 505.275L1398.53 542.629L1320.97 619.927L1252.28 551.506V355.119L1324.66 283L1400 359.188Z" fill="#CA181E"/>
</svg>
