<svg width="182" height="71" viewBox="0 0 182 71" fill="none" xmlns="http://www.w3.org/2000/svg">
    <path
        d="M38.6957 58.4631L29.1523 68.0203L19.6834 58.4631L23.9332 54.2072V45.4713H14.7625V54.2072L19.0124 58.4631L9.4689 68.0203L0 58.4631L4.24982 54.2072V15.6798L19.9816 0.0746613L34.4459 14.5598V54.2072L38.6957 58.4631ZM23.9332 34.4955V20.8317L14.7625 11.6478V34.4955H23.9332Z"
        fill="#CA181E" />
    <path
        d="M71.7985 15.3811L63.8208 23.221L52.4879 11.6478V50.8472L55.2466 53.5352L63.8208 44.874L71.5003 52.4152L55.8431 68.0203L41.9752 54.2072V14.5598L56.5886 0L71.7985 15.3811Z"
        fill="#CA181E" />
    <path
        d="M107.064 31.7329L79.5521 70.111L89.1701 42.3354H79.5521L92.0779 13.5145H103.933L97.2224 31.7329H107.064Z"
        fill="#CA181E" />
    <path
        d="M144.343 55.5511L132.041 68.0195H117.949L109.673 59.5077L114.147 55.1024V13.0664L109.599 8.51185L117.949 0.149307H132.041L144.343 12.6185V55.5511ZM133.83 49.5779V18.5917L124.659 9.7065V58.4631L133.83 49.5779Z"
        fill="#CA181E" />
    <path
        d="M181.696 15.3811L173.719 23.221L162.386 11.6478V50.8472L165.145 53.5352L173.719 44.874L181.399 52.4152L165.741 68.0203L151.874 54.2072V14.5598L166.487 0L181.696 15.3811Z"
        fill="#CA181E" />
</svg>